<svg xmlns="http://www.w3.org/2000/svg" aria-hidden="true" style="position:absolute;width:0;height:0;overflow:hidden">
  <defs>
    <symbol id="navigation" viewBox="0 0 128 32">
      <path fill="#7eb693" d="M80 16.885c0 7.855-6.368 14.222-14.222 14.222S51.556 24.74 51.556 16.885c0-7.855 6.367-14.222 14.222-14.222S80 9.03 80 16.885z" style="fill:var(--color1, #7eb693)"/>
      <path fill="#c4c4c4" d="M126.222 16.885c0 7.855-6.368 14.222-14.222 14.222S97.778 24.74 97.778 16.885c0-7.855 6.368-14.222 14.222-14.222s14.222 6.367 14.222 14.222zM30.222 16.885c0 7.855-6.367 14.222-14.222 14.222S1.778 24.74 1.778 16.885C1.778 9.03 8.145 2.663 16 2.663S30.222 9.03 30.222 16.885z" style="fill:var(--color2, #c4c4c4)"/>
    </symbol>
    <symbol id="star" viewBox="0 0 143 32">
      <path fill="#ffa858" d="M14.768 5.21c.518-1.522 2.671-1.522 3.189 0l1.656 4.866a1.683 1.683 0 0 0 1.594 1.142h5.188c1.651 0 2.316 2.128.96 3.068l-4.06 2.816a1.685 1.685 0 0 0-.635 1.927l1.582 4.649c.523 1.538-1.219 2.853-2.554 1.927l-4.366-3.028a1.683 1.683 0 0 0-1.92 0l-4.366 3.028c-1.335.926-3.078-.389-2.554-1.927l1.582-4.649a1.685 1.685 0 0 0-.635-1.927l-4.06-2.816c-1.356-.941-.691-3.068.96-3.068h5.188c.721 0 1.362-.459 1.594-1.142l1.656-4.866zM42.023 5.456c.504-1.552 2.699-1.552 3.204 0l1.494 4.598a1.685 1.685 0 0 0 1.602 1.164h4.835c1.632 0 2.31 2.088.99 3.047l-3.912 2.842a1.685 1.685 0 0 0-.612 1.883l1.494 4.599c.504 1.552-1.272 2.842-2.592 1.883l-3.911-2.842a1.684 1.684 0 0 0-1.98 0l-3.911 2.842c-1.32.959-3.096-.331-2.592-1.883l1.494-4.599a1.684 1.684 0 0 0-.612-1.883l-3.912-2.842c-1.32-.959-.642-3.047.99-3.047h4.835c.73 0 1.376-.47 1.602-1.164l1.494-4.598zM69.292 5.21c.518-1.522 2.671-1.522 3.189 0l1.657 4.866a1.683 1.683 0 0 0 1.594 1.142h5.188c1.651 0 2.316 2.128.96 3.068l-4.06 2.816a1.685 1.685 0 0 0-.635 1.927l1.582 4.649c.523 1.538-1.219 2.853-2.554 1.927l-4.366-3.028a1.683 1.683 0 0 0-1.92 0l-4.366 3.028c-1.335.926-3.078-.389-2.554-1.927l1.582-4.649a1.686 1.686 0 0 0-.634-1.927l-4.06-2.816c-1.356-.941-.691-3.068.96-3.068h5.188c.721 0 1.362-.459 1.594-1.142l1.656-4.866zM96.547 5.456c.504-1.552 2.699-1.552 3.204 0l1.494 4.598a1.684 1.684 0 0 0 1.602 1.164h4.835c1.632 0 2.31 2.088.99 3.047l-3.912 2.842a1.685 1.685 0 0 0-.612 1.883l1.494 4.599c.504 1.552-1.272 2.842-2.592 1.883l-3.911-2.842a1.684 1.684 0 0 0-1.98 0l-3.911 2.842c-1.32.959-3.096-.331-2.592-1.883l1.494-4.599a1.682 1.682 0 0 0-.612-1.883l-3.912-2.842c-1.32-.959-.642-3.047.99-3.047h4.835c.73 0 1.376-.47 1.602-1.164l1.494-4.598zM123.817 5.21c.518-1.522 2.671-1.522 3.189 0l1.656 4.866a1.683 1.683 0 0 0 1.594 1.142h5.188c1.65 0 2.316 2.128.96 3.068l-4.06 2.816a1.685 1.685 0 0 0-.635 1.927l1.582 4.649c.524 1.538-1.219 2.853-2.554 1.927l-4.366-3.028a1.683 1.683 0 0 0-1.92 0l-4.366 3.028c-1.335.926-3.078-.389-2.554-1.927l1.582-4.649a1.685 1.685 0 0 0-.635-1.927l-4.06-2.816c-1.356-.941-.691-3.068.96-3.068h5.188c.721 0 1.362-.459 1.594-1.142l1.656-4.866z" style="fill:var(--color3, #ffa858)"/>
    </symbol>
    <symbol id="human" viewBox="0 0 29 32">
      <path d="M19.706 2.327C18.359.826 16.477 0 14.4 0c-2.088 0-3.976.821-5.317 2.313-1.356 1.508-2.016 3.557-1.861 5.77C7.529 12.449 10.749 16 14.4 16s6.865-3.551 7.177-7.916c.157-2.193-.508-4.238-1.871-5.757zM26.584 32H2.215c-.319.004-.635-.065-.925-.202s-.546-.34-.751-.593c-.45-.555-.631-1.313-.497-2.079C.626 25.782 2.45 22.972 5.316 21c2.546-1.751 5.772-2.714 9.083-2.714s6.537.964 9.083 2.714c2.866 1.972 4.689 4.781 5.274 8.125.134.766-.047 1.524-.497 2.079-.204.253-.461.455-.751.593s-.606.207-.925.203z"/>
    </symbol>
    <symbol id="pinterest" viewBox="0 0 30 32">
      <path d="M14.928 1.091C6.684 1.091 0 7.772 0 16.013c0 6.108 3.679 11.358 8.937 13.669-.04-1.039-.007-2.291.26-3.424l1.919-8.133s-.48-.953-.48-2.358c0-2.212 1.28-3.864 2.879-3.864 1.36 0 2.013 1.019 2.013 2.238 0 1.366-.873 3.404-1.32 5.296-.373 1.585.793 2.871 2.359 2.871 2.826 0 4.732-3.63 4.732-7.934 0-3.271-2.206-5.715-6.211-5.715-4.525 0-7.351 3.377-7.351 7.148 0 1.299.387 2.218.986 2.924.273.326.313.46.213.833-.073.273-.233.933-.307 1.199-.1.38-.407.513-.746.373-2.086-.853-3.059-3.131-3.059-5.702 0-4.237 3.579-9.319 10.67-9.319 5.698 0 9.45 4.123 9.45 8.547 0 5.855-3.259 10.225-8.057 10.225-1.613 0-3.126-.873-3.645-1.859 0 0-.866 3.437-1.053 4.103-.313 1.152-.933 2.298-1.499 3.197 1.374.405 2.799.612 4.232.613 8.244 0 14.928-6.681 14.928-14.921S23.172 1.092 14.928 1.092z"/>
    </symbol>
    <symbol id="twitter" viewBox="0 0 37 32">
      <path d="M36.729 4.754a15.448 15.448 0 0 1-4.327 1.171 7.46 7.46 0 0 0 3.316-4.101 15.111 15.111 0 0 1-4.787 1.798 7.59 7.59 0 0 0-5.503-2.349c-4.164 0-7.534 3.321-7.534 7.415a7.135 7.135 0 0 0 .194 1.691A21.474 21.474 0 0 1 2.554 2.628a7.327 7.327 0 0 0-1.025 3.726c0 2.571 1.341 4.844 3.367 6.175a7.457 7.457 0 0 1-3.427-.926v.092c0 3.596 2.602 6.588 6.045 7.269a7.693 7.693 0 0 1-1.985.26 7.155 7.155 0 0 1-1.416-.138c.957 2.946 3.743 5.089 7.044 5.15a15.273 15.273 0 0 1-9.36 3.176 15.66 15.66 0 0 1-1.798-.107 21.328 21.328 0 0 0 11.534 3.352c13.878 0 21.459-11.302 21.459-21.104 0-.321-.009-.643-.024-.956a15.18 15.18 0 0 0 3.759-3.841z"/>
    </symbol>
    <symbol id="facebook" viewBox="0 0 32 32">
      <path d="M30.852 16c0-8.203-6.907-14.855-15.426-14.855S0 7.797 0 16c0 7.414 5.64 13.56 13.016 14.675v-10.38H9.098V16h3.918v-3.273c0-3.722 2.304-5.78 5.827-5.78 1.688 0 3.454.29 3.454.29v3.656h-1.946c-1.915 0-2.514 1.145-2.514 2.321v2.785h4.278l-.683 4.295h-3.594v10.381c7.376-1.115 13.016-7.26 13.016-14.677z"/>
    </symbol>
    <symbol id="instagram" viewBox="0 0 32 32">
      <path d="M21.854 3.621c1.703.005 3.335.659 4.54 1.818s1.883 2.731 1.888 4.372V22.19c-.005 1.64-.684 3.212-1.888 4.372s-2.836 1.814-4.54 1.818H8.999c-1.703-.005-3.335-.659-4.54-1.818s-1.883-2.731-1.888-4.372V9.811c.005-1.64.684-3.212 1.888-4.372s2.836-1.814 4.54-1.818h12.855zm0-2.476H8.999C4.05 1.145 0 5.044 0 9.811V22.19c0 4.766 4.049 8.666 8.999 8.666h12.855c4.95 0 8.999-3.9 8.999-8.666V9.811c0-4.766-4.049-8.666-8.999-8.666z"/>
      <path d="M23.782 9.812c-.381 0-.754-.109-1.071-.313s-.564-.494-.71-.833c-.146-.339-.184-.713-.11-1.073s.258-.691.528-.951.613-.437.987-.508.762-.035 1.114.106c.352.141.653.379.865.684a1.806 1.806 0 0 1-.239 2.346c-.179.173-.392.309-.626.402s-.485.141-.739.14zm-8.356 1.238c1.017 0 2.011.29 2.857.835s1.505 1.317 1.894 2.222.491 1.901.293 2.861-.688 1.843-1.407 2.536c-.719.692-1.635 1.164-2.633 1.355s-2.031.093-2.971-.282-1.743-1.01-2.308-1.824-.867-1.772-.867-2.751c.001-1.313.544-2.572 1.508-3.5s2.271-1.45 3.635-1.452zm0-2.476c-1.526 0-3.017.436-4.285 1.252S8.884 11.802 8.3 13.159c-.584 1.357-.737 2.851-.439 4.291s1.032 2.764 2.111 3.803c1.079 1.039 2.453 1.746 3.949 2.033s3.047.14 4.456-.423c1.409-.562 2.614-1.514 3.462-2.736s1.3-2.657 1.3-4.127c0-1.97-.813-3.859-2.259-5.252s-3.408-2.175-5.454-2.175z"/>
    </symbol>
    <symbol id="dropdown-icon" viewBox="0 0 43 32">
      <path fill="none" stroke="#274c5b" style="stroke: var(--color1, #274c5b)" stroke-linejoin="round" stroke-linecap="round" stroke-miterlimit="4" stroke-width="8" d="M4.219 8l16 16 16-16"></path>
    </symbol>
    <symbol id="fresh" viewBox="0 0 30 32">
      <path fill="#fef1c2" style="fill: var(--color1, #fef1c2)" d="M30 9.667c0 5.339-4.328 9.667-9.667 9.667s-9.667-4.328-9.667-9.667c0-5.339 4.328-9.667 9.667-9.667s9.667 4.328 9.667 9.667z"></path>
      <path fill="#000" style="fill: var(--color2, #000)" d="M0 4h28v28h-28v-28z"></path>
    </symbol>
    <symbol id="return-policy" viewBox="0 0 29 32">
      <path fill="#fef1c2" style="fill: var(--color1, #fef1c2)" d="M29.44 9.28c0 5.125-4.155 9.28-9.28 9.28s-9.28-4.155-9.28-9.28c0-5.125 4.155-9.28 9.28-9.28s9.28 4.155 9.28 9.28z"></path>
      <path fill="#000" style="fill: var(--color2, #000)" d="M0 2.56h29.44v29.44h-29.44v-29.44z"></path>
    </symbol>
    <symbol id="secured-payment" viewBox="0 0 37 32">
      <path fill="#fef1c2" style="fill: var(--color1, #fef1c2)" d="M37.091 10.545c0 5.824-4.721 10.545-10.545 10.545s-10.545-4.721-10.545-10.545c0-5.824 4.721-10.545 10.545-10.545s10.545 4.721 10.545 10.545z"></path>
      <path fill="#000" style="fill: var(--color2, #000)" d="M0 0h32v32h-32v-32z"></path>
    </symbol>
    <symbol id="support" viewBox="0 0 30 32">
      <path fill="#fef1c2" style="fill: var(--color1, #fef1c2)" d="M29.957 9.872c0 5.452-4.42 9.872-9.872 9.872s-9.872-4.42-9.872-9.872c0-5.452 4.42-9.872 9.872-9.872s9.872 4.42 9.872 9.872z"></path>
      <path fill="#000" style="fill: var(--color2, #000)" d="M0 2.043h29.957v29.957h-29.957v-29.957z"></path>
    </symbol>
    <symbol id="factory" viewBox="0 0 31 32">
      <path fill="#fff4cd" style="fill: var(--color1, #fff4cd)" d="M11.259 6.737c0 2.946-2.52 5.333-5.63 5.333s-5.63-2.388-5.63-5.333c0-2.946 2.52-5.333 5.63-5.333s5.63 2.388 5.63 5.333z"></path>
      <path fill="#000" style="fill: var(--color2, #000)" d="M0 0.281h31.439v31.439h-31.439v-31.439z"></path>
    </symbol>
    <symbol id="tractor" viewBox="0 0 34 32">
      <path  d="M13.37 6.333c0 3.498-2.993 6.333-6.685 6.333s-6.685-2.836-6.685-6.333c0-3.498 2.993-6.333 6.685-6.333s6.685 2.836 6.685 6.333z"></path>
      <path  d="M3.333 1.333h30.667v30.667h-30.667v-30.667z"></path>
    </symbol>
    <symbol id="search" viewBox="0 0 34 32">
      <path fill="#fafafa" style="fill: var(--color1, #fafafa)" d="M32.716 28.788l-7.255-7.253c1.675-2.213 2.683-5.011 2.683-8.045 0-0.007 0-0.014 0-0.020v0.001c0-7.427-6.042-13.47-13.47-13.47-7.426 0-13.469 6.043-13.469 13.47 0 7.429 6.043 13.47 13.47 13.47 0.005 0 0.010 0 0.016 0 3.035 0 5.834-1.009 8.080-2.709l-0.034 0.024 7.255 7.253c0.339 0.303 0.789 0.488 1.282 0.488 1.065 0 1.928-0.863 1.928-1.928 0-0.493-0.185-0.943-0.49-1.284l0.002 0.002zM5.053 13.47c0.001-5.313 4.308-9.62 9.621-9.62s9.621 4.308 9.621 9.621-4.308 9.621-9.621 9.621v0c-5.311-0.008-9.614-4.312-9.62-9.622v-0.001z"></path>
    </symbol>
    <symbol id="play" viewBox="0 0 28 32">
      <path fill="#fff" style="fill: var(--color1, #fff)" d="M26.24 12.675c2.56 1.478 2.56 5.173 0 6.651l-20.16 11.639c-2.56 1.478-5.76-0.369-5.76-3.325v-23.279c0-2.956 3.2-4.804 5.76-3.326l20.16 11.639z"></path>
    </symbol>
    <symbol id="dropdown-white" viewBox="0 0 20 32">
      <path fill="none" stroke="#fff" style="stroke: var(--color1, #fff)" stroke-linejoin="round" stroke-linecap="round" stroke-miterlimit="4" stroke-width="3.6923" d="M2.462 29.538l13.538-13.538-13.538-13.538"></path>
    </symbol>
    <symbol id="phone" viewBox="0 0 32 32">
      <path fill="#f9eab6" style="fill: var(--color1, #f9eab6)" d="M23.667 22.238c-0.624-0.629-2.137-1.547-2.87-1.917-0.955-0.481-1.034-0.52-1.785 0.037-0.501 0.372-0.834 0.705-1.42 0.58s-1.86-0.83-2.976-1.942c-1.115-1.112-1.861-2.423-1.987-3.007s0.213-0.913 0.582-1.415c0.52-0.708 0.48-0.826 0.036-1.781-0.346-0.743-1.291-2.241-1.923-2.862-0.675-0.667-0.675-0.549-1.111-0.368-0.354 0.149-0.694 0.33-1.016 0.541-0.629 0.418-0.978 0.765-1.222 1.287s-0.354 1.745 0.907 4.035c1.261 2.29 2.146 3.462 3.977 5.287s3.239 2.807 5.297 3.962c2.546 1.426 3.523 1.148 4.046 0.904s0.872-0.59 1.291-1.219c0.212-0.321 0.393-0.66 0.543-1.014 0.181-0.434 0.299-0.434-0.369-1.109z"></path>
      <path fill="none" stroke="#7eb693" style="stroke: var(--color2, #7eb693)" stroke-linejoin="miter" stroke-linecap="butt" stroke-miterlimit="10" stroke-width="1.0667" d="M24.434 19.779c-0.556-0.561-1.904-1.379-2.558-1.709-0.852-0.429-0.922-0.464-1.591 0.033-0.446 0.332-0.743 0.628-1.266 0.517s-1.658-0.74-2.652-1.731c-0.994-0.991-1.659-2.159-1.771-2.68s0.19-0.814 0.518-1.261c0.463-0.631 0.428-0.736 0.032-1.587-0.309-0.662-1.151-1.997-1.714-2.551-0.602-0.595-0.602-0.49-0.99-0.328-0.316 0.133-0.619 0.294-0.905 0.483-0.561 0.372-0.872 0.682-1.090 1.147s-0.315 1.555 0.808 3.597 1.912 3.085 3.544 4.713c1.632 1.627 2.887 2.502 4.721 3.531 2.269 1.271 3.14 1.023 3.606 0.806s0.777-0.526 1.15-1.086c0.189-0.286 0.351-0.588 0.484-0.904 0.162-0.387 0.267-0.387-0.329-0.988z"></path>
    </symbol>
    <symbol id="message" viewBox="0 0 32 32">
      <path fill="#f9eab6" style="fill: var(--color1, #f9eab6)" d="M10.667 11.2h9.244c1.571 0 2.844 1.274 2.844 2.844v5.333c0 1.571-1.273 2.844-2.844 2.844h-9.244c-1.571 0-2.844-1.273-2.844-2.844v-5.333c0-1.571 1.274-2.844 2.844-2.844z"></path>
      <path fill="none" stroke="#7eb693" style="stroke: var(--color2, #7eb693)" stroke-linejoin="miter" stroke-linecap="butt" stroke-miterlimit="4" stroke-width="0.3556" d="M10.667 11.2h9.244c1.571 0 2.844 1.274 2.844 2.844v5.333c0 1.571-1.273 2.844-2.844 2.844h-9.244c-1.571 0-2.844-1.273-2.844-2.844v-5.333c0-1.571 1.274-2.844 2.844-2.844z"></path>
      <path fill="none" stroke="#7eb693" style="stroke: var(--color2, #7eb693)" stroke-linejoin="miter" stroke-linecap="butt" stroke-miterlimit="4" stroke-width="1.0667" d="M12.089 9.956h9.244c1.276 0 2.311 1.035 2.311 2.311v5.333c0 1.276-1.035 2.311-2.311 2.311h-9.244c-1.276 0-2.311-1.035-2.311-2.311v-5.333c0-1.276 1.035-2.311 2.311-2.311z"></path>
      <path fill="none" stroke="#7eb693" style="stroke: var(--color2, #7eb693)" stroke-linejoin="miter" stroke-linecap="butt" stroke-miterlimit="4" stroke-width="1.0667" d="M10.311 10.489l5.624 5.055c0.402 0.361 1.011 0.365 1.417 0.008l5.758-5.063"></path>
    </symbol>
    <symbol id="cross" viewBox="0 0 32 32">
      <path d="M31.708 25.708c-0-0-0-0-0-0l-9.708-9.708 9.708-9.708c0-0 0-0 0-0 0.105-0.105 0.18-0.227 0.229-0.357 0.133-0.356 0.057-0.771-0.229-1.057l-4.586-4.586c-0.286-0.286-0.702-0.361-1.057-0.229-0.13 0.048-0.252 0.124-0.357 0.228 0 0-0 0-0 0l-9.708 9.708-9.708-9.708c-0-0-0-0-0-0-0.105-0.104-0.227-0.18-0.357-0.228-0.356-0.133-0.771-0.057-1.057 0.229l-4.586 4.586c-0.286 0.286-0.361 0.702-0.229 1.057 0.049 0.13 0.124 0.252 0.229 0.357 0 0 0 0 0 0l9.708 9.708-9.708 9.708c-0 0-0 0-0 0-0.104 0.105-0.18 0.227-0.229 0.357-0.133 0.355-0.057 0.771 0.229 1.057l4.586 4.586c0.286 0.286 0.702 0.361 1.057 0.229 0.13-0.049 0.252-0.124 0.357-0.229 0-0 0-0 0-0l9.708-9.708 9.708 9.708c0 0 0 0 0 0 0.105 0.105 0.227 0.18 0.357 0.229 0.356 0.133 0.771 0.057 1.057-0.229l4.586-4.586c0.286-0.286 0.362-0.702 0.229-1.057-0.049-0.13-0.124-0.252-0.229-0.357z"></path>
    </symbol>
    <symbol id="checkmark" viewBox="0 0 32 32">
      <path d="M27 4l-15 15-7-7-5 5 12 12 20-20z"></path>
    </symbol>
  </defs>
</svg>
